<?xml version="1.0" encoding="UTF-8" standalone="no"?>
<!-- Created with Inkscape (http://www.inkscape.org/) -->

<svg
   version="1.1"
   id="svg2"
   width="2430.187"
   height="2335.6602"
   viewBox="0 0 2430.187 2335.6602"
   sodipodi:docname="fencebayLOGOONLY.svg"
   inkscape:export-filename="..\fencebayLOGOONLY.svg"
   inkscape:export-xdpi="96"
   inkscape:export-ydpi="96"
   inkscape:version="1.2.1 (9c6d41e410, 2022-07-14)"
   xmlns:inkscape="http://www.inkscape.org/namespaces/inkscape"
   xmlns:sodipodi="http://sodipodi.sourceforge.net/DTD/sodipodi-0.dtd"
   xmlns="http://www.w3.org/2000/svg"
   xmlns:svg="http://www.w3.org/2000/svg">
  <defs
     id="defs6">
    <rect
       x="2289.855"
       y="2661.8357"
       width="1057.9709"
       height="347.82608"
       id="rect1979" />
    <rect
       x="835.74878"
       y="3241.5459"
       width="1990.3383"
       height="400.96619"
       id="rect414" />
    <rect
       x="917.87439"
       y="3357.4878"
       width="1884.058"
       height="304.34784"
       id="rect402" />
    <rect
       x="1106.2802"
       y="3429.9517"
       width="1845.4106"
       height="236.71498"
       id="rect396" />
  </defs>
  <sodipodi:namedview
     id="namedview4"
     pagecolor="#ffffff"
     bordercolor="#000000"
     borderopacity="0.25"
     inkscape:showpageshadow="2"
     inkscape:pageopacity="0.0"
     inkscape:pagecheckerboard="true"
     inkscape:deskcolor="#d1d1d1"
     showgrid="false"
     showguides="false"
     inkscape:zoom="0.207"
     inkscape:cx="1855.0725"
     inkscape:cy="1524.1546"
     inkscape:window-width="2560"
     inkscape:window-height="1017"
     inkscape:window-x="-8"
     inkscape:window-y="-8"
     inkscape:window-maximized="1"
     inkscape:current-layer="g12" />
  <g
     id="g10"
     inkscape:groupmode="layer"
     inkscape:label="Page 1"
     transform="matrix(1.3333333,0,0,-1.3333333,-147.22549,3904.4194)">
    <g
       id="g12"
       transform="scale(0.1)"
       style="display:inline">
      <path
         d="m 6616.5912,25942.346 351.4,-7782.9 -1171,-387.1 469.1,8170 h 350.5"
         style="fill:#294456;fill-opacity:1;fill-rule:evenodd;stroke:none"
         id="path22" />
      <path
         d="m 4124.4212,25050.246 2204.67,-2012 -6.7,-1091.4 -2430.41,2906.2 232.44,197.2"
         style="fill:#294456;fill-opacity:1;fill-rule:evenodd;stroke:none"
         id="path24" />
      <path
         d="m 10037.191,24445.646 -3488.8998,-2344.4 72.2,-1012.5 3512.0998,3284.4 -95.4,72.5"
         style="fill:#294456;fill-opacity:1;fill-rule:evenodd;stroke:none"
         id="path26" />
      <path
         d="m 6387.9912,29283.146 c -1036.3,-887.2 -1226.75,-2421 -132.3,-3156.9 0,0 44.4,882.9 186.8,1723.9 34.6,-728.9 156,-1645.8 156,-1645.8 847,964.2 405.5,2219.6 -210.6,3078.8 h 0.1"
         style="fill:#81bb33;fill-opacity:1;fill-rule:evenodd;stroke:none"
         id="path28" />
      <path
         d="m 4091.9012,27152.846 c -81.02,-1045 648.88,-1981.8 1643.29,-1787 0,0 -455.5,503.8 -835.13,1038.1 414.83,-377.2 978.93,-809.4 978.93,-809.4 -63.6,984 -985.58,1426.2 -1787.07,1558.3 h -0.02"
         style="fill:#81bb33;fill-opacity:1;fill-rule:evenodd;stroke:none"
         id="path30" />
      <path
         d="m 8671.0912,26694.146 c 78.7,-1015.8 -630.8,-1926.4 -1597.4,-1737.1 0,0 442.8,489.7 811.8,1009.1 -403.2,-366.7 -951.6,-786.8 -951.6,-786.8 61.9,956.5 958.1,1386.3 1737.2,1514.8 v 0"
         style="fill:#81bb33;fill-opacity:1;fill-rule:evenodd;stroke:none"
         id="path32" />
      <path
         d="m 4022.3012,28648.246 c 825.96,-70.9 1463.39,-760.9 1183.68,-1511.9 0,0 -334.72,420.2 -702.98,785 241.15,-372.1 506.02,-867.9 506.02,-867.9 -759.77,176 -986.54,952.3 -986.73,1594.8 h 0.01"
         style="fill:#81bb33;fill-opacity:1;fill-rule:evenodd;stroke:none"
         id="path34" />
      <path
         d="m 8416.5912,28114.046 c -787.4,-67.6 -1394.9,-725.3 -1128.3,-1441.3 0,0 319,400.6 670.1,748.4 -229.9,-354.8 -482.4,-827.3 -482.4,-827.3 724.3,167.7 940.4,907.7 940.6,1520.2"
         style="fill:#81bb33;fill-opacity:1;fill-rule:evenodd;stroke:none"
         id="path36" />
      <path
         d="m 2369.3412,23124.146 c 837.23,-466.6 1894.42,-218.1 2112.53,682.4 0,0 -592.63,-185.9 -1181.53,-297.1 471.91,200.5 1046.49,504 1046.49,504 -841.8,323.1 -1561.46,-273.9 -1977.47,-889.3 h -0.02"
         style="fill:#81bb33;fill-opacity:1;fill-rule:evenodd;stroke:none"
         id="path38" />
      <path
         d="m 2685.7312,26985.046 c 825.96,-70.9 1463.35,-760.8 1183.66,-1511.9 0,0 -334.72,420.2 -702.98,785.1 241.15,-372.2 506.04,-867.9 506.04,-867.9 -759.78,176 -986.54,952.3 -986.72,1594.7"
         style="fill:#81bb33;fill-opacity:1;fill-rule:evenodd;stroke:none"
         id="path40" />
      <path
         d="m 1104.1912,25425.246 c 431.58,-1049.5 1594.04,-1598.6 2460,-925.2 0,0 -686.09,264.6 -1313.6,595.8 584.98,-162.2 1340.96,-304.7 1340.96,-304.7 -541.57,919.9 -1648.31,897.5 -2487.36,634.1"
         style="fill:#81bb33;fill-opacity:1;fill-rule:evenodd;stroke:none"
         id="path42" />
      <path
         d="m 10983.291,21911.646 404.901,404.9 404.8,-404.9 v -1368 h 361.2 v 667.3 l 404.9,404.9 404.8,-404.9 v -667.3 h 188.3 v -462.6 h -188.3 v -2014.3 c -266.8,45.2 -536.7,84.1 -809.6,116.2 v 1898.1 h -361.2 v -1859.4 c -267.3,25.5 -537.4,43.9 -809.701,56.3 v 1803.1 h -361.2 v -1790.4 c -134.5,3.4 -269.3,5.4 -404.9,5.4 -135.5,0 -270.2998,-2.1 -404.7998,-5.4 v 1790.4 h -361.2 v -1803.1 c -272.3,-12.5 -542.4,-30.9 -809.7,-56.3 v 1859.4 h -361.1 v -1898.1 c -273,-32.1 -543,-71 -809.7,-116.2 v 2014.3 h -188.3 v 462.6 h 188.3 v 667.3 l 404.8,404.9 404.9,-404.9 v -667.3 h 361.1 v 1368 l 404.9,404.9 404.8,-404.9 v -1368 h 361.2 v 2068.8 l 404.8998,404.8 404.8,-404.8 v -2068.8 h 361.2 v 1368 h -0.1"
         style="fill:#81bb33;fill-opacity:1;fill-rule:evenodd;stroke:none"
         id="path44" />
      <path
         d="m 10217.291,18565.246 c 2874.401,0 5478.701,-866.5 7375.201,-2270 -2017.4,990.4 -4582.3,1583.7 -7375.201,1583.7 -2792.8998,0 -5357.8298,-593.3 -7375.1698,-1583.7 1896.51,1403.5 4500.77,2270 7375.1698,2270 v 0"
         style="fill:#294456;fill-opacity:1;fill-rule:evenodd;stroke:none"
         id="path46" />
      <path
         d="m 9488.1912,25800.346 c -769.9,-252.7 -1221.6,-1052 -787.1,-1703.9 0,0 224.3,474.9 492.8,904.6 -146,-408.2 -286.8,-939.2 -286.8,-939.2 683.4,337.8 725,1127.2 581.1,1738.5 v 0"
         style="fill:#81bb33;fill-opacity:1;fill-rule:evenodd;stroke:none"
         id="path48" />
      <path
         d="m 11172.892,26974.346 c -994.901,-299.2 -1599.6008,-1309.2 -1063.701,-2158.6 0,0 302.7,601.4 660.7,1143.5 -200.2,-518.5 -397.8,-1194.6 -397.8,-1194.6 886.801,411 965.601,1421.5 800.801,2209.7 v 0"
         style="fill:#81bb33;fill-opacity:1;fill-rule:evenodd;stroke:none"
         id="path50" />
      <path
         d="m 13818.192,25942.346 -351.4,-7782.9 1171,-387.1 -469.1,8170 h -350.5"
         style="fill:#294456;fill-opacity:1;fill-rule:evenodd;stroke:none"
         id="path52" />
      <path
         d="m 16310.392,25050.246 -2204.7,-2012 6.7,-1091.4 2430.4,2906.2 -232.4,197.2"
         style="fill:#294456;fill-opacity:1;fill-rule:evenodd;stroke:none"
         id="path54" />
      <path
         d="m 10235.491,24622.246 3651.001,-2521 -72.2,-1012.5 -3674.201,3461 95.4,72.5"
         style="fill:#294456;fill-opacity:1;fill-rule:evenodd;stroke:none"
         id="path56" />
      <path
         d="m 14046.792,29283.146 c 1036.3,-887.2 1226.7,-2421 132.3,-3156.9 0,0 -44.4,882.9 -186.8,1723.9 -34.6,-728.9 -156,-1645.8 -156,-1645.8 -847,964.2 -405.5,2219.6 210.5,3078.8 v 0"
         style="fill:#81bb33;fill-opacity:1;fill-rule:evenodd;stroke:none"
         id="path58" />
      <path
         d="m 16114.792,27065.846 c 186.1,-1038.2 -450.5,-2049.5 -1465.7,-1954.4 0,0 405.5,550.3 731.8,1123.3 -377.4,-419.4 -898.7,-908.8 -898.7,-908.8 -35.2,991.6 843.4,1527.1 1632.6,1739.9 v 0"
         style="fill:#81bb33;fill-opacity:1;fill-rule:evenodd;stroke:none"
         id="path60" />
      <path
         d="m 11763.692,26694.146 c -78.7,-1015.8 630.8,-1926.4 1597.4,-1737.1 0,0 -442.8,489.7 -811.8,1009.1 403.2,-366.7 951.6,-786.8 951.6,-786.8 -61.9,956.5 -958.1,1386.3 -1737.2,1514.8 v 0"
         style="fill:#81bb33;fill-opacity:1;fill-rule:evenodd;stroke:none"
         id="path62" />
      <path
         d="m 16412.492,28648.246 c -826,-70.9 -1463.4,-760.9 -1183.7,-1511.9 0,0 334.7,420.2 703,785 -241.2,-372.1 -506,-867.9 -506,-867.9 759.7,176 986.5,952.3 986.7,1594.8"
         style="fill:#81bb33;fill-opacity:1;fill-rule:evenodd;stroke:none"
         id="path64" />
      <path
         d="m 12018.192,28114.046 c 787.3,-67.6 1394.9,-725.3 1128.3,-1441.3 0,0 -319,400.6 -670.1,748.4 229.9,-354.8 482.4,-827.3 482.4,-827.3 -724.3,167.7 -940.4,907.7 -940.6,1520.2 v 0"
         style="fill:#81bb33;fill-opacity:1;fill-rule:evenodd;stroke:none"
         id="path66" />
      <path
         d="m 17911.192,23034.246 c -837.2,-466.7 -1894.4,-218.2 -2112.5,682.4 0,0 592.6,-186 1181.5,-297.2 -471.9,200.5 -1046.5,504 -1046.5,504 841.8,323.1 1561.5,-273.8 1977.5,-889.2 v 0"
         style="fill:#81bb33;fill-opacity:1;fill-rule:evenodd;stroke:none"
         id="path68" />
      <path
         d="m 17749.092,27019.646 c -843.9,-72.5 -1495.1,-777.3 -1209.4,-1544.7 0,0 342,429.3 718.2,802.1 -246.4,-380.3 -517,-886.8 -517,-886.8 776.3,179.9 1008,973 1008.2,1629.4 v 0"
         style="fill:#81bb33;fill-opacity:1;fill-rule:evenodd;stroke:none"
         id="path70" />
      <path
         d="m 19330.592,25425.246 c -431.6,-1049.5 -1594,-1598.6 -2460,-925.2 0,0 686.1,264.6 1313.6,595.8 -585,-162.2 -1341,-304.7 -1341,-304.7 541.6,919.9 1648.4,897.5 2487.4,634.1 v 0"
         style="fill:#81bb33;fill-opacity:1;fill-rule:evenodd;stroke:none"
         id="path72" />
      <path
         d="m 11468.592,25432.346 c 790.8,-302 1222.3,-1158.5 736.5,-1817 0,0 -210.3,506.6 -469.1,968.3 132,-433.2 252.5,-994.2 252.5,-994.2 -696.3,386.4 -700.5,1212.2 -519.9,1842.9 v 0"
         style="fill:#81bb33;fill-opacity:1;fill-rule:evenodd;stroke:none"
         id="path74" />
      <path
         d="m 8238.0912,24681.746 c -554.3,-215.1 -854.2,-818.4 -510.4,-1279.2 0,0 145.8,356.7 325.9,682 -91.1,-304.7 -173.6,-699.4 -173.6,-699.4 487.6,274.2 487.4,854.3 358.1,1296.6 v 0"
         style="fill:#81bb33;fill-opacity:1;fill-rule:evenodd;stroke:none"
         id="path76" />
      <path
         d="m 13136.692,24359.846 c -554.3,-215.1 -854.2,-818.5 -510.4,-1279.2 0,0 145.8,356.7 325.8,682 -91,-304.8 -173.6,-699.4 -173.6,-699.4 487.7,274.2 487.5,854.3 358.2,1296.6 v 0"
         style="fill:#81bb33;fill-opacity:1;fill-rule:evenodd;stroke:none"
         id="path78" />
      <path
         d="m 16131.092,22014.246 c -585.9,101.4 -999,633.6 -753,1153.2 0,0 213.4,-320.9 454.1,-604.3 -149.5,280.8 -308.3,651.4 -308.3,651.4 532.2,-172.5 646.5,-741.2 607.2,-1200.3 v 0"
         style="fill:#81bb33;fill-opacity:1;fill-rule:evenodd;stroke:none"
         id="path80" />
      <path
         d="m 4299.2612,22040.346 c 585.94,101.4 999.03,633.6 753.03,1153.2 0,0 -213.4,-320.9 -454.15,-604.3 149.47,280.9 308.31,651.4 308.31,651.4 -532.15,-172.5 -646.52,-741.2 -607.19,-1200.3"
         style="fill:#81bb33;fill-opacity:1;fill-rule:evenodd;stroke:none"
         id="path82" />
      <path
         d="m 4945.0112,25281.246 c 585.98,-101.4 999.08,-633.7 752.98,-1153.2 0,0 -213.4,320.8 -454.1,604.2 149.5,-280.8 308.3,-651.3 308.3,-651.3 -532.14,172.4 -646.51,741.1 -607.18,1200.3 v 0"
         style="fill:#81bb33;fill-opacity:1;fill-rule:evenodd;stroke:none"
         id="path84" />
      <path
         d="m 15353.092,25104.946 c -586,-101.4 -999.1,-633.6 -753.1,-1153.2 0,0 213.4,320.9 454.2,604.2 -149.5,-280.8 -308.4,-651.3 -308.4,-651.3 532.2,172.4 646.6,741.2 607.3,1200.3 v 0"
         style="fill:#81bb33;fill-opacity:1;fill-rule:evenodd;stroke:none"
         id="path86" />
      <text
         xml:space="preserve"
         transform="matrix(7.5000002,0,0,-7.5000002,0,30000.001)"
         id="text394"
         style="white-space:pre;shape-inside:url(#rect396);fill:#674a69" />
      <text
         xml:space="preserve"
         transform="matrix(7.5000002,0,0,-7.5000002,0,30000.001)"
         id="text400"
         style="white-space:pre;shape-inside:url(#rect402);fill:#674a69" />
      <text
         xml:space="preserve"
         transform="matrix(7.5000002,0,0,-7.5000002,0,30000.001)"
         id="text412"
         style="font-size:85.3333px;white-space:pre;shape-inside:url(#rect414);fill:#674a69" />
      <text
         xml:space="preserve"
         transform="matrix(7.5000002,0,0,-7.5000002,0,30000.001)"
         id="text1977"
         style="font-style:normal;font-variant:normal;font-weight:normal;font-stretch:normal;font-size:133.333px;line-height:0px;font-family:sans-serif;-inkscape-font-specification:sans-serif;white-space:pre;shape-inside:url(#rect1979);fill:#294456;fill-opacity:1" />
    </g>
  </g>
</svg>
