<?xml version="1.0" encoding="UTF-8" standalone="no"?>
<!-- Created with Inkscape (http://www.inkscape.org/) -->

<svg
   version="1.1"
   id="svg2"
   width="2245.9963"
   height="515.62469"
   viewBox="0 0 2245.9964 515.6247"
   sodipodi:docname="fencebayTXTONLY.svg"
   inkscape:export-filename="..\fencebayTXTONLY.svg"
   inkscape:export-xdpi="96"
   inkscape:export-ydpi="96"
   inkscape:version="1.2.1 (9c6d41e410, 2022-07-14)"
   xmlns:inkscape="http://www.inkscape.org/namespaces/inkscape"
   xmlns:sodipodi="http://sodipodi.sourceforge.net/DTD/sodipodi-0.dtd"
   xmlns="http://www.w3.org/2000/svg"
   xmlns:svg="http://www.w3.org/2000/svg">
  <defs
     id="defs6">
    <rect
       x="2265.7004"
       y="2632.8501"
       width="1410.6281"
       height="251.20773"
       id="rect1985" />
    <rect
       x="2289.855"
       y="2661.8357"
       width="1057.9709"
       height="347.82608"
       id="rect1979" />
    <rect
       x="835.74878"
       y="3241.5459"
       width="1990.3383"
       height="400.96619"
       id="rect414" />
    <rect
       x="917.87439"
       y="3357.4878"
       width="1884.058"
       height="304.34784"
       id="rect402" />
    <rect
       x="1106.2802"
       y="3429.9517"
       width="1845.4106"
       height="236.71498"
       id="rect396" />
  </defs>
  <sodipodi:namedview
     id="namedview4"
     pagecolor="#ffffff"
     bordercolor="#000000"
     borderopacity="0.25"
     inkscape:showpageshadow="2"
     inkscape:pageopacity="0.0"
     inkscape:pagecheckerboard="true"
     inkscape:deskcolor="#d1d1d1"
     showgrid="false"
     showguides="false"
     inkscape:zoom="0.207"
     inkscape:cx="1859.9034"
     inkscape:cy="1528.9855"
     inkscape:window-width="2560"
     inkscape:window-height="1017"
     inkscape:window-x="-8"
     inkscape:window-y="-8"
     inkscape:window-maximized="1"
     inkscape:current-layer="g12" />
  <g
     id="g10"
     inkscape:groupmode="layer"
     inkscape:label="Page 1"
     transform="matrix(1.3333333,0,0,-1.3333333,-239.22549,2125.2416)">
    <g
       id="g12"
       transform="scale(0.1)"
       style="display:inline">
      <path
         d="m 4119.7312,14261.246 h 816.37 c -10.22,143.5 -47.8,250.1 -112.01,319.1 -69.02,74.5 -168.08,111.4 -295.82,111.4 -117.54,0 -213.85,-36.9 -288.33,-111.4 -75.15,-74.5 -114.77,-181 -120.23,-319.1 z m 960.54,-627.1 h 400.35 c -58.74,-224.1 -170.79,-394.9 -336.11,-512.4 -165.34,-123 -373.69,-184.5 -624.44,-184.5 -304,0 -542.42,99.1 -713.2,296.5 -171.48,192 -256.87,466.7 -256.87,824.6 0,341.6 82.64,608.1 248.65,800 171.49,197.5 409.23,296.5 713.23,296.5 320.44,0 568.41,-95.6 744.68,-287.6 170.79,-196.7 256.2,-471.4 256.2,-823.2 0,-21.2 0,-39.6 0,-55.3 0,-16.4 0,-26.7 0,-32.2 0,-26.6 -2.75,-45.1 -8.23,-56 h -1384.78 c 5.45,-166.7 45.08,-290.3 120.23,-370.9 68.99,-86.1 173.53,-129.2 312.23,-129.2 90.87,0 168.06,19.2 232.29,56.7 15.7,4.8 30.75,14.4 43.73,28 13.66,13 28.01,28.1 44.42,44.5 4.77,15.7 25.28,37.5 59.42,64.2 34.86,26.6 84.72,40.3 148.23,40.3 z m 2454.02,-655.9 h -280.8 c -80,0 -145.6,25.3 -196.1,75.9 -51.2,51.2 -76.5,116.1 -76.5,196.7 v 0 1089 c 0,127.8 -38.3,221.4 -115.5,280.1 -77.2,58.8 -163.9,88.1 -259.6,88.1 -95.6,0 -180.3,-29.3 -254.8,-88.1 -74.5,-58.7 -112.1,-152.3 -112.1,-280.1 v -1361.6 h -561.53 v 1248.2 c 0,362.8 94.96,606 284.23,728.3 189.2,122.9 399,189.2 628.5,200.1 234.3,0 450.9,-61.4 648.3,-183.7 197.5,-123 295.8,-371 295.8,-744.7 v -1248.2 z m 1646.4,655.9 h 400.3 c -58.7,-224.1 -170.8,-394.9 -336.1,-512.4 -165.3,-123 -373.7,-184.5 -624.4,-184.5 -304.7,0 -541.8,99.1 -712.6,296.5 -170.7,192 -256.1,466.7 -256.1,824.6 0,341.6 82.6,608.1 248,800 170.7,197.5 408.5,296.5 712.5,296.5 320.4,0 568.4,-96.3 744.7,-288.3 95.6,-117.5 165.3,-253.4 207.7,-408.5 h -560.2 c -26.7,53.9 -53.3,94.3 -80,120.9 -69.6,75.2 -168,112.7 -296.5,112.7 -116.8,0 -213.1,-37.5 -287.6,-112 -96.3,-107.3 -144.1,-283.5 -144.1,-529.5 0,-245.9 47.8,-419.4 144.1,-521.2 69,-85.4 172.8,-128.5 312.2,-128.5 90.2,0 168.1,19.2 231.6,56.7 16.4,4.8 30.8,14.4 44.4,28 13,13 28.1,28.1 43.8,44.5 10.9,15.7 32.1,37.5 64.2,64.2 32.1,26.6 79.9,40.3 144.1,40.3 z m 1085.5998,627.1 h 816.301 c -10.2,143.5 -47.801,250.1 -112.001,319.1 -69,74.5 -168.1,111.4 -295.8,111.4 -117.5,0 -213.9,-36.9 -288.3,-111.4 -75.2,-74.5 -114.8,-181 -120.3,-319.1 z m 960.501,-627.1 h 400.3 c -58.7,-224.1 -170.8,-394.9 -336.1,-512.4 -165.3,-123 -373.701,-184.5 -624.401,-184.5 -304,0 -542.4,99.1 -713.1998,296.5 -171.5,192 -256.9,466.7 -256.9,824.6 0,341.6 82.7,608.1 248.7,800 171.3998,197.5 409.1998,296.5 713.1998,296.5 320.4,0 568.401,-95.6 744.701,-287.6 170.8,-196.7 256.2,-471.4 256.2,-823.2 0,-21.2 0,-39.6 0,-55.3 0,-16.4 0,-26.7 0,-32.2 0,-26.6 -2.8,-45.1 -8.2,-56 h -1384.801 c 5.4,-166.7 45.1,-290.3 120.2,-370.9 69,-86.1 173.5,-129.2 312.2,-129.2 90.9,0 168.1,19.2 232.3,56.7 15.7,4.8 30.8,14.4 43.7,28 13.7,13 28.1,28.1 44.5,44.5 4.7,15.7 25.3,37.5 59.401,64.2 34.9,26.6 84.7,40.3 148.2,40.3 z m -9432.6008,-655.9 v 2466.3 c 0,80 28.01,148.3 84.03,204.3 56,56 124.33,84 204.95,84 h 1713.43 v -471.4 h -1440.83 v -594.3 h 1072.58 v -183.8 c 0,-80 -28,-147.6 -84.02,-203.6 -56.01,-56 -123.65,-84 -204.28,-84 h -784.28 v -1217.5 c 0,0 -561.57,0 -561.58,0"
         style="fill:#294456;fill-opacity:1;fill-rule:evenodd;stroke:none"
         id="path16" />
      <text
         xml:space="preserve"
         transform="matrix(7.5000002,0,0,-7.5000002,0,30000.001)"
         id="text394"
         style="white-space:pre;shape-inside:url(#rect396);fill:#674a69" />
      <text
         xml:space="preserve"
         transform="matrix(7.5000002,0,0,-7.5000002,0,30000.001)"
         id="text400"
         style="white-space:pre;shape-inside:url(#rect402);fill:#674a69" />
      <text
         xml:space="preserve"
         transform="matrix(7.5000002,0,0,-7.5000002,0,30000.001)"
         id="text412"
         style="font-size:85.3333px;white-space:pre;shape-inside:url(#rect414);fill:#674a69" />
      <text
         xml:space="preserve"
         transform="matrix(7.5000002,0,0,-7.5000002,0,30000.001)"
         id="text1977"
         style="font-style:normal;font-variant:normal;font-weight:normal;font-stretch:normal;font-size:133.333px;line-height:0px;font-family:sans-serif;-inkscape-font-specification:sans-serif;white-space:pre;shape-inside:url(#rect1979);fill:#294456;fill-opacity:1" />
      <text
         xml:space="preserve"
         transform="matrix(7.5000002,0,0,-7.5000002,-5252.0291,33949.276)"
         id="text1983"
         style="font-style:normal;font-variant:normal;font-weight:bold;font-stretch:normal;font-size:533.333px;line-height:0px;font-family:'Cascadia Mono';-inkscape-font-specification:'Cascadia Mono Bold';white-space:pre;shape-inside:url(#rect1985);fill:#294456;fill-opacity:1"><tspan
           x="2265.7012"
           y="2791.9532"
           id="tspan208"><tspan
             style="fill:#81bb33"
             id="tspan206">bay</tspan></tspan></text>
    </g>
  </g>
</svg>
